<?xml version="1.0" encoding="utf-8"?>
<!-- Svg Vector Icons : http://www.onlinewebfonts.com/icon -->
<!DOCTYPE svg PUBLIC "-//W3C//DTD SVG 1.1//EN" "http://www.w3.org/Graphics/SVG/1.1/DTD/svg11.dtd">
<svg version="1.1" xmlns="http://www.w3.org/2000/svg" xmlns:xlink="http://www.w3.org/1999/xlink" x="0px" y="0px" viewBox="0 0 1000 1000" enable-background="new 0 0 1000 1000" xml:space="preserve">
<metadata> Svg Vector Icons : http://www.onlinewebfonts.com/icon </metadata>
<g><path d="M517.4,813.3c-13.2,0-26.3,0-39.5,0c-6.1-0.4-12.2-1.1-18.4-1.2c-39.8-0.9-79.5-3.2-118.7-10.2c-24-4.3-47.7-9.7-69.2-22c-16.7-9.5-27.3-22.4-25.7-43.1c0.9-11.9-0.3-23.9,0.5-35.7c0.5-7.4,2.1-15.1,5.1-21.9c9.9-22.5,28.1-37.5,48.1-50.5c33.5-21.8,70.7-34.8,109.5-43.2c11.5-2.5,23.3-14.5,25.9-26.1c1.8-8,1.4-15.1-4.1-21.9c-13.9-17.3-22.8-37.2-28.7-58.6c-0.8-2.7-3.3-5.1-5.4-7.3c-5.1-5.4-11.9-9.8-15.4-16.1c-9.6-17-14.4-35.7-12.9-55.4c0.4-5.1,1.8-10.9,4.9-14.6c2.5-3,2.5-4.6,1.5-7.7c-5.7-17.3-8.4-35.1-7.6-53.2c1.2-28.4,8.2-55.4,22-80.4c14.1-25.6,34.1-44.4,62.9-52.5c7.6-2.1,15.5-3.3,23.2-5c4.5,0,9,0,13.6,0c4.8,0.9,9.6,1.7,14.4,2.7c16.3,3.4,31.7,8.9,42.6,22.3c2.5,3.1,4.7,3.4,8.3,3.3c8.3,0,16.9-0.4,24.9,1.4c19.7,4.5,31.3,18.7,39.1,36.3c15,34.1,15.6,70,11.8,106.2c-1.1,10.7-6.9,21.6,0.5,32.2c0.1,0.1,0,0.4,0.1,0.6c4.7,27.7-0.1,53.3-19.4,74.5c-7.3,8-11.8,16.8-16.1,26.6c-7.3,16.6-16.8,32.3-25.9,48c-10.4,17.9-7.2,36.8,16,43.2c3.5,1,7.2,1.6,10.7,2.5c41.7,9.6,81.1,24.4,115.7,50.3c15.6,11.7,29.3,25.3,36.8,43.7c2.8,6.9,3.8,14.5,5.7,21.7c0,14,0,28,0,41.9c-2.9,8.1-7.9,14.8-15.2,19.3c-7.3,4.5-14.7,9.1-22.6,12.4c-52.3,21.7-107.6,30-163.5,34.7C541,811.5,529.2,812.4,517.4,813.3L517.4,813.3z M507.5,672.8c8.4-4.9,16.3-10,24.6-14.4c4.8-2.6,4.8-5.5,2.3-9.3c-1.2-1.9-2.4-4.1-4.2-5.3c-9.2-6.4-18.6-12.6-28-18.7c-1-0.7-3-1-4-0.5c-12.7,6.6-26,12.5-34.7,24.6c-2.8,3.9-2.6,6.7,2.3,9.2c8.7,4.4,17.1,9.4,25.8,14.3c-0.8,1.6-1.2,2.8-1.8,3.8c-18.1,33.2-26.1,69-28.1,106.5c-0.3,5,1.2,7.8,6.4,8.5c7.1,0.9,14.2,2.9,21.2,2.9c13.7,0,27.4-1,41-1.9c3.8-0.2,6.6-2.2,6.1-6.8c-1.6-15.3-2.3-30.7-4.9-45.7C527.4,716.5,519.3,694.2,507.5,672.8L507.5,672.8z"/><path d="M500,10C229.4,10,10,229.4,10,500c0,270.6,219.4,490,490,490c270.6,0,490-219.4,490-490C990,229.4,770.6,10,500,10L500,10z M500,927.7C263.8,927.7,72.3,736.2,72.3,500S263.8,72.3,500,72.3c236.2,0,427.7,191.5,427.7,427.7C927.7,736.2,736.2,927.7,500,927.7L500,927.7z"/></g>
</svg>